<svg xmlns="http://www.w3.org/2000/svg" width="20" height="20" viewBox="0 0 20 20" fill="none">
  <path d="M18.3333 0H1.66667C0.75 0 0 0.75 0 1.66667V18.3333C0 19.25 0.75 20 1.66667 20H18.3333C19.25 20 20 19.25 20 18.3333V1.66667C20 0.75 19.25 0 18.3333 0ZM6.25 16.6667H3.33333V7.5H6.25V16.6667ZM4.79167 6.25C3.91667 6.25 3.20833 5.54167 3.20833 4.66667C3.20833 3.79167 3.91667 3.08333 4.79167 3.08333C5.66667 3.08333 6.375 3.79167 6.375 4.66667C6.375 5.54167 5.66667 6.25 4.79167 6.25ZM16.6667 16.6667H13.75V12.0833C13.75 10.8333 13.75 9.16667 12.0833 9.16667C10.4167 9.16667 10.2083 10.625 10.2083 12.0833V16.6667H7.29167V7.5H10.125V9.04167C10.5417 8.33333 11.4583 7.5 13.125 7.5C16.25 7.5 16.6667 9.58333 16.6667 11.6667V16.6667Z" fill="white"/>
</svg>
